<?xml version="1.0" encoding="UTF-8" standalone="no"?>
<!-- Created with Inkscape (http://www.inkscape.org/) -->

<svg
   xmlns:dc="http://purl.org/dc/elements/1.1/"
   xmlns:cc="http://creativecommons.org/ns#"
   xmlns:rdf="http://www.w3.org/1999/02/22-rdf-syntax-ns#"
   xmlns:svg="http://www.w3.org/2000/svg"
   xmlns="http://www.w3.org/2000/svg"
   version="1.2"
   width="33"
   height="42"
   id="svg7113">
  <defs
     id="defs7115" />
  <metadata
     id="metadata7118">
    <rdf:RDF>
      <cc:Work
         rdf:about="">
        <dc:format>image/svg+xml</dc:format>
        <dc:type
           rdf:resource="http://purl.org/dc/dcmitype/StillImage" />
        <dc:title></dc:title>
      </cc:Work>
    </rdf:RDF>
  </metadata>
  <g
     transform="translate(-120,-243.35668)"
     id="layer1">
    <g
       id="flowRoot3762">
      <path
         d="m 153,283.10668 0,1.5 c -3e-5,0.20312 -0.0782,0.375 -0.23438,0.51563 -0.14065,0.15624 -0.31253,0.23437 -0.51562,0.23437 l -31.5,0 c -0.20313,0 -0.38281,-0.0781 -0.53906,-0.23437 C 120.07031,284.98168 120,284.8098 120,284.60668 l 0,-1.5 c 0,-0.20313 0.0703,-0.38281 0.21094,-0.53906 0.15625,-0.14063 0.33593,-0.21094 0.53906,-0.21094 l 31.5,0 c 0.20309,0 0.37497,0.0703 0.51562,0.21094 0.15622,0.15625 0.23435,0.33593 0.23438,0.53906 m -6,-24.75 c -3e-5,1.21877 -0.19534,2.34377 -0.58594,3.375 -0.37502,1.03127 -0.87502,1.91408 -1.5,2.64844 -0.6094,0.71876 -1.28908,1.40626 -2.03906,2.0625 -0.75002,0.64064 -1.50002,1.2422 -2.25,1.80469 -0.75002,0.56251 -1.43752,1.12501 -2.0625,1.6875 -0.60939,0.5625 -1.10939,1.20313 -1.5,1.92187 -0.37502,0.70313 -0.56252,1.45313 -0.5625,2.25 -2e-5,1.5 0.52342,3.25 1.57031,5.25 l -0.0937,-0.0234 0.0234,0.0234 c -1.40627,-0.64062 -2.65627,-1.28906 -3.75,-1.94531 -1.09376,-0.65625 -2.1797,-1.4375 -3.25781,-2.34375 -1.06251,-0.90625 -1.94532,-1.85937 -2.64844,-2.85938 -0.70313,-1.01561 -1.27344,-2.1953 -1.71094,-3.53906 -0.42188,-1.34374 -0.63282,-2.78124 -0.63281,-4.3125 -1e-5,-1.21873 0.18749,-2.34373 0.5625,-3.375 0.39062,-1.03123 0.89062,-1.90623 1.5,-2.625 0.62499,-0.73435 1.31249,-1.42185 2.0625,-2.0625 0.74999,-0.65623 1.49999,-1.2656 2.25,-1.82812 0.74999,-0.56248 1.42967,-1.12498 2.03906,-1.6875 0.62499,-0.56248 1.12499,-1.19529 1.5,-1.89844 0.39061,-0.71872 0.58592,-1.47653 0.58594,-2.27344 -2e-5,-1.46872 -0.51564,-3.21871 -1.54688,-5.25 l 0.0703,0.0234 -0.0234,-0.0234 c 1.40623,0.64066 2.65623,1.2891 3.75,1.94531 1.09373,0.65629 2.17185,1.43754 3.23437,2.34375 1.07811,0.90628 1.96873,1.86722 2.67188,2.88282 0.7031,1.00002 1.2656,2.1719 1.6875,3.51562 0.43747,1.34378 0.65622,2.78127 0.65625,4.3125"
         id="path3935"
         style="fill:#bf0000" />
    </g>
  </g>
</svg>
