<?xml version="1.0" encoding="UTF-8" standalone="no"?>
<!-- Created with Inkscape (http://www.inkscape.org/) -->

<svg
   xmlns:dc="http://purl.org/dc/elements/1.1/"
   xmlns:cc="http://creativecommons.org/ns#"
   xmlns:rdf="http://www.w3.org/1999/02/22-rdf-syntax-ns#"
   xmlns:svg="http://www.w3.org/2000/svg"
   xmlns="http://www.w3.org/2000/svg"
   version="1.2"
   width="36"
   height="36"
   id="svg7113">
  <defs
     id="defs7115" />
  <metadata
     id="metadata7118">
    <rdf:RDF>
      <cc:Work
         rdf:about="">
        <dc:format>image/svg+xml</dc:format>
        <dc:type
           rdf:resource="http://purl.org/dc/dcmitype/StillImage" />
        <dc:title></dc:title>
      </cc:Work>
    </rdf:RDF>
  </metadata>
  <g
     transform="translate(-120,-246.35668)"
     id="layer1">
    <g
       id="flowRoot3762">
      <path
         d="m 128.95312,248.77074 c 2.76562,-1.60934 5.78124,-2.41403 9.04688,-2.41406 3.2656,3e-5 6.27341,0.80472 9.02344,2.41406 2.76559,1.60941 4.95309,3.79691 6.5625,6.5625 1.60934,2.75002 2.41402,5.75783 2.41406,9.02344 -4e-5,3.26564 -0.80472,6.28126 -2.41406,9.04688 -1.60941,2.75 -3.79691,4.92968 -6.5625,6.53906 -2.75003,1.60937 -5.75784,2.41406 -9.02344,2.41406 -3.26564,0 -6.28126,-0.80469 -9.04688,-2.41406 -2.75,-1.60938 -4.92969,-3.78906 -6.53906,-6.53906 C 120.80469,270.63794 120,267.62232 120,264.35668 c 0,-3.26561 0.80469,-6.27342 2.41406,-9.02344 1.60937,-2.76559 3.78906,-4.95309 6.53906,-6.5625 M 141,275.58324 l 0,-4.45312 c -2e-5,-0.21874 -0.0703,-0.39843 -0.21094,-0.53906 -0.14064,-0.15625 -0.31252,-0.23437 -0.51562,-0.23438 l -4.5,0 c -0.20314,1e-5 -0.38283,0.0781 -0.53907,0.23438 -0.15626,0.15625 -0.23439,0.33594 -0.23437,0.53906 l 0,4.45312 c -2e-5,0.20313 0.0781,0.38282 0.23437,0.53907 0.15624,0.15625 0.33593,0.23437 0.53907,0.23437 l 4.5,0 c 0.2031,0 0.37498,-0.0703 0.51562,-0.21094 0.14061,-0.15624 0.21092,-0.34374 0.21094,-0.5625 m -0.0469,-8.0625 0.42188,-14.55468 c -2e-5,-0.18748 -0.0781,-0.3281 -0.23438,-0.42188 -0.15627,-0.12497 -0.34377,-0.18747 -0.5625,-0.1875 l -5.15625,0 c -0.21876,3e-5 -0.40626,0.0625 -0.5625,0.1875 -0.15626,0.0938 -0.23438,0.2344 -0.23437,0.42188 l 0.39844,14.55468 c -2e-5,0.15627 0.0781,0.29689 0.23437,0.42188 0.15624,0.10938 0.34374,0.16407 0.5625,0.16406 l 4.33594,0 c 0.21873,1e-5 0.39842,-0.0547 0.53906,-0.16406 0.15623,-0.12499 0.24217,-0.26561 0.25781,-0.42188"
         id="path3896"
         style="fill:#bf6900" />
    </g>
  </g>
</svg>
