<?xml version="1.0" encoding="UTF-8" standalone="no"?>
<!-- Created with Inkscape (http://www.inkscape.org/) -->

<svg
   xmlns:dc="http://purl.org/dc/elements/1.1/"
   xmlns:cc="http://creativecommons.org/ns#"
   xmlns:rdf="http://www.w3.org/1999/02/22-rdf-syntax-ns#"
   xmlns:svg="http://www.w3.org/2000/svg"
   xmlns="http://www.w3.org/2000/svg"
   version="1.2"
   width="36"
   height="36"
   id="svg7113">
  <defs
     id="defs7115" />
  <metadata
     id="metadata7118">
    <rdf:RDF>
      <cc:Work
         rdf:about="">
        <dc:format>image/svg+xml</dc:format>
        <dc:type
           rdf:resource="http://purl.org/dc/dcmitype/StillImage" />
        <dc:title></dc:title>
      </cc:Work>
    </rdf:RDF>
  </metadata>
  <g
     transform="translate(-120,-246.35668)"
     id="layer1">
    <g
       id="flowRoot3762">
      <path
         d="m 144,275.60668 0,-3.75 c -2e-5,-0.21874 -0.0703,-0.39843 -0.21094,-0.53906 -0.14065,-0.14062 -0.32033,-0.21093 -0.53906,-0.21094 l -2.25,0 0,-12 c -2e-5,-0.21873 -0.0703,-0.39842 -0.21094,-0.53906 -0.14064,-0.14061 -0.32033,-0.21092 -0.53906,-0.21094 l -7.5,0 c -0.21876,2e-5 -0.39845,0.0703 -0.53906,0.21094 -0.14064,0.14064 -0.21095,0.32033 -0.21094,0.53906 l 0,3.75 c -1e-5,0.21877 0.0703,0.39845 0.21094,0.53906 0.14061,0.14064 0.3203,0.21096 0.53906,0.21094 l 2.25,0 0,7.5 -2.25,0 c -0.21876,1e-5 -0.39845,0.0703 -0.53906,0.21094 -0.14064,0.14063 -0.21095,0.32032 -0.21094,0.53906 l 0,3.75 c -1e-5,0.21875 0.0703,0.39844 0.21094,0.53906 0.14061,0.14063 0.3203,0.21094 0.53906,0.21094 l 10.5,0 c 0.21873,0 0.39841,-0.0703 0.53906,-0.21094 0.1406,-0.14062 0.21092,-0.32031 0.21094,-0.53906 m -3,-21 0,-3.75 c -2e-5,-0.21872 -0.0703,-0.39841 -0.21094,-0.53906 -0.14064,-0.1406 -0.32033,-0.21091 -0.53906,-0.21094 l -4.5,0 c -0.21877,3e-5 -0.39845,0.0703 -0.53906,0.21094 -0.14064,0.14065 -0.21096,0.32034 -0.21094,0.53906 l 0,3.75 c -2e-5,0.21878 0.0703,0.39846 0.21094,0.53906 0.14061,0.14065 0.32029,0.21097 0.53906,0.21094 l 4.5,0 c 0.21873,3e-5 0.39842,-0.0703 0.53906,-0.21094 0.14061,-0.1406 0.21092,-0.32028 0.21094,-0.53906 m 12.58594,0.72656 c 1.60934,2.75002 2.41402,5.75783 2.41406,9.02344 -4e-5,3.26564 -0.80472,6.28126 -2.41406,9.04688 -1.60941,2.75 -3.79691,4.92968 -6.5625,6.53906 -2.75003,1.60937 -5.75784,2.41406 -9.02344,2.41406 -3.26564,0 -6.28126,-0.80469 -9.04688,-2.41406 -2.75,-1.60938 -4.92969,-3.78906 -6.53906,-6.53906 C 120.80469,270.63794 120,267.62232 120,264.35668 c 0,-3.26561 0.80469,-6.27342 2.41406,-9.02344 1.60937,-2.76559 3.78906,-4.95309 6.53906,-6.5625 2.76562,-1.60934 5.78124,-2.41403 9.04688,-2.41406 3.2656,3e-5 6.27341,0.80472 9.02344,2.41406 2.76559,1.60941 4.95309,3.79691 6.5625,6.5625"
         id="path3799"
         style="fill:#003f72" />
    </g>
  </g>
</svg>
