<?xml version="1.0" encoding="UTF-8" standalone="no"?>
<!-- Created with Inkscape (http://www.inkscape.org/) -->

<svg
   xmlns:dc="http://purl.org/dc/elements/1.1/"
   xmlns:cc="http://creativecommons.org/ns#"
   xmlns:rdf="http://www.w3.org/1999/02/22-rdf-syntax-ns#"
   xmlns:svg="http://www.w3.org/2000/svg"
   xmlns="http://www.w3.org/2000/svg"
   version="1.2"
   width="24"
   height="36"
   id="svg7113">
  <defs
     id="defs7115" />
  <metadata
     id="metadata7118">
    <rdf:RDF>
      <cc:Work
         rdf:about="">
        <dc:format>image/svg+xml</dc:format>
        <dc:type
           rdf:resource="http://purl.org/dc/dcmitype/StillImage" />
        <dc:title></dc:title>
      </cc:Work>
    </rdf:RDF>
  </metadata>
  <g
     transform="translate(-120,-246.35668)"
     id="layer1">
    <g
       id="flowRoot3762">
      <path
         d="m 137.25,256.85668 c -2e-5,0.20315 -0.0781,0.38284 -0.23438,0.53906 -0.14064,0.14065 -0.31251,0.21096 -0.51562,0.21094 -0.20314,2e-5 -0.38283,-0.0703 -0.53906,-0.21094 -0.14064,-0.15622 -0.21096,-0.33591 -0.21094,-0.53906 -2e-5,-0.71873 -0.42189,-1.27341 -1.26563,-1.66406 -0.84376,-0.3906 -1.67188,-0.58591 -2.48437,-0.58594 -0.20314,3e-5 -0.38282,-0.0703 -0.53906,-0.21094 -0.14064,-0.15622 -0.21095,-0.33591 -0.21094,-0.53906 -1e-5,-0.2031 0.0703,-0.37497 0.21094,-0.51562 0.15624,-0.15623 0.33592,-0.23435 0.53906,-0.23438 0.78124,3e-5 1.55467,0.12503 2.32031,0.375 0.78124,0.25003 1.46092,0.6719 2.03906,1.26563 0.59374,0.59377 0.89061,1.29689 0.89063,2.10937 m 3.75,0 c -2e-5,-1.12498 -0.27346,-2.17185 -0.82031,-3.14062 -0.53127,-0.96873 -1.2344,-1.75779 -2.10938,-2.36719 -0.85939,-0.62497 -1.82033,-1.10935 -2.88281,-1.45313 -1.04689,-0.35934 -2.10939,-0.53903 -3.1875,-0.53906 -1.07814,3e-5 -2.14845,0.17972 -3.21094,0.53906 -1.04688,0.34378 -2.00782,0.82816 -2.88281,1.45313 -0.85938,0.6094 -1.5625,1.39846 -2.10937,2.36719 -0.53126,0.96877 -0.79688,2.01564 -0.79688,3.14062 0,1.57815 0.53125,2.9844 1.59375,4.21875 0.15625,0.17189 0.39062,0.42971 0.70313,0.77344 0.32811,0.34377 0.5703,0.60158 0.72656,0.77344 1.99999,2.39064 3.10155,4.71876 3.30468,6.98437 l 5.34375,0 c 0.20312,-2.26561 1.30468,-4.59373 3.30469,-6.98437 0.15623,-0.17186 0.39061,-0.42967 0.70313,-0.77344 0.3281,-0.34373 0.57029,-0.60155 0.72656,-0.77344 1.06248,-1.23435 1.59373,-2.6406 1.59375,-4.21875 m 3,0 c -2e-5,2.4219 -0.80471,4.51564 -2.41406,6.28125 -0.70315,0.76564 -1.28909,1.44533 -1.75782,2.03906 -0.45314,0.59377 -0.91408,1.34377 -1.38281,2.25 -0.46877,0.89064 -0.73439,1.72658 -0.79687,2.50782 0.73435,0.43751 1.10154,1.07813 1.10156,1.92187 -2e-5,0.57813 -0.19533,1.07813 -0.58594,1.5 0.39061,0.42188 0.58592,0.92188 0.58594,1.5 -2e-5,0.8125 -0.35158,1.44532 -1.05469,1.89844 0.20311,0.35938 0.30467,0.72656 0.30469,1.10156 -2e-5,0.71875 -0.25002,1.27344 -0.75,1.66406 -0.48439,0.39063 -1.08595,0.58594 -1.80469,0.58594 -0.31251,0.6875 -0.78126,1.23437 -1.40625,1.64063 -0.62501,0.40624 -1.3047,0.60937 -2.03906,0.60937 -0.73439,0 -1.41407,-0.20313 -2.03906,-0.60937 -0.62501,-0.40626 -1.09376,-0.95313 -1.40625,-1.64063 -0.71876,0 -1.32813,-0.19531 -1.82813,-0.58594 -0.48438,-0.39062 -0.72657,-0.94531 -0.72656,-1.66406 -1e-5,-0.375 0.10156,-0.74218 0.30469,-1.10156 -0.70313,-0.45312 -1.0547,-1.08594 -1.05469,-1.89844 -1e-5,-0.57812 0.19531,-1.07812 0.58594,-1.5 -0.39063,-0.42187 -0.58595,-0.92187 -0.58594,-1.5 -1e-5,-0.84374 0.36718,-1.48436 1.10156,-1.92187 -0.0625,-0.78124 -0.32813,-1.61718 -0.79687,-2.50782 -0.46876,-0.90623 -0.93751,-1.65623 -1.40625,-2.25 -0.45313,-0.59373 -1.03126,-1.27342 -1.73438,-2.03906 C 120.80469,261.37232 120,259.27858 120,256.85668 c 0,-1.54685 0.34375,-2.98435 1.03125,-4.3125 0.70312,-1.34372 1.61718,-2.45309 2.74219,-3.32812 1.14062,-0.8906 2.42187,-1.58591 3.84375,-2.08594 1.43749,-0.51559 2.89842,-0.77341 4.38281,-0.77344 1.48436,3e-5 2.93749,0.25785 4.35937,0.77344 1.43749,0.50003 2.71874,1.19534 3.84375,2.08594 1.14061,0.87503 2.05467,1.9844 2.74219,3.32812 0.7031,1.32815 1.05467,2.76565 1.05469,4.3125"
         id="path3857"
         style="fill:#003f72" />
    </g>
  </g>
</svg>
