<?xml version="1.0" encoding="UTF-8" standalone="no"?>
<!-- Created with Inkscape (http://www.inkscape.org/) -->

<svg
   xmlns:dc="http://purl.org/dc/elements/1.1/"
   xmlns:cc="http://creativecommons.org/ns#"
   xmlns:rdf="http://www.w3.org/1999/02/22-rdf-syntax-ns#"
   xmlns:svg="http://www.w3.org/2000/svg"
   xmlns="http://www.w3.org/2000/svg"
   version="1.2"
   width="42.890625"
   height="39"
   id="svg7113">
  <defs
     id="defs7115" />
  <metadata
     id="metadata7118">
    <rdf:RDF>
      <cc:Work
         rdf:about="">
        <dc:format>image/svg+xml</dc:format>
        <dc:type
           rdf:resource="http://purl.org/dc/dcmitype/StillImage" />
        <dc:title></dc:title>
      </cc:Work>
    </rdf:RDF>
  </metadata>
  <g
     transform="translate(-119.55469,-243.35668)"
     id="layer1">
    <g
       id="flowRoot3762">
      <path
         d="m 144,275.58324 0,-4.45312 c -2e-5,-0.21874 -0.0781,-0.39843 -0.23438,-0.53906 -0.14064,-0.15625 -0.31252,-0.23437 -0.51562,-0.23438 l -4.5,0 c -0.20314,1e-5 -0.38283,0.0781 -0.53906,0.23438 -0.14065,0.14063 -0.21096,0.32032 -0.21094,0.53906 l 0,4.45312 c -2e-5,0.21876 0.0703,0.40626 0.21094,0.5625 0.15623,0.14063 0.33592,0.21094 0.53906,0.21094 l 4.5,0 c 0.2031,0 0.37498,-0.0703 0.51562,-0.21094 0.15623,-0.15624 0.23436,-0.34374 0.23438,-0.5625 m -0.0469,-8.76562 0.42188,-10.75781 c -2e-5,-0.18748 -0.0781,-0.33592 -0.23438,-0.44532 -0.20314,-0.17185 -0.39064,-0.25778 -0.5625,-0.25781 l -5.15625,0 c -0.17189,3e-5 -0.35939,0.086 -0.5625,0.25781 -0.15626,0.1094 -0.23439,0.27346 -0.23437,0.49219 l 0.39844,10.71094 c -2e-5,0.15626 0.0781,0.28907 0.23437,0.39844 0.15623,0.0938 0.34373,0.14063 0.5625,0.14062 l 4.33594,0 c 0.21873,1e-5 0.39841,-0.0469 0.53906,-0.14062 0.15623,-0.10937 0.24217,-0.24218 0.25781,-0.39844 m -0.32812,-21.89063 18,33 c 0.54683,0.98438 0.53121,1.96875 -0.0469,2.95313 -0.26566,0.45312 -0.63285,0.8125 -1.10156,1.07812 -0.45316,0.26563 -0.94535,0.39844 -1.47656,0.39844 l -36,0 c -0.53125,0 -1.03125,-0.13281 -1.5,-0.39844 -0.45313,-0.26562 -0.8125,-0.625 -1.07812,-1.07812 -0.57813,-0.98438 -0.59375,-1.96875 -0.0469,-2.95313 l 18,-33 c 0.26561,-0.48434 0.63279,-0.86715 1.10156,-1.14843 0.46873,-0.28122 0.97654,-0.42184 1.52344,-0.42188 0.54685,4e-5 1.05467,0.14066 1.52344,0.42188 0.46872,0.28128 0.83591,0.66409 1.10156,1.14843"
         id="path3974"
         style="fill:#bf0000" />
    </g>
  </g>
</svg>
